<svg xmlns="http://www.w3.org/2000/svg" xmlns:xlink="http://www.w3.org/1999/xlink" version="1.1" x="0px" y="0px" viewBox="0 0 24 30" style="enable-background:new 0 0 24 24;" xml:space="preserve"><g><path d="M13.997,6h-3.995C9.45,6,9,5.55,9,4.998V1.002C9,0.45,9.45,0,10.002,0h3.995C14.55,0,15,0.45,15,1.002v3.995   C15,5.55,14.55,6,13.997,6z M10.002,1L10,4.998L13.997,5c0.001,0,0.001,0,0.001,0L14,1.002L10.002,1z"/><path d="M13.997,15h-3.995C9.45,15,9,14.55,9,13.997v-3.995C9,9.45,9.45,9,10.002,9h3.995C14.55,9,15,9.45,15,10.002v3.995   C15,14.55,14.55,15,13.997,15z M10.002,10L10,13.997L13.997,14c0.001,0,0.002,0,0.002,0L14,10.002L10.002,10z"/><path d="M13.997,24h-3.995C9.45,24,9,23.55,9,22.997v-3.994C9,18.45,9.45,18,10.002,18h3.995C14.55,18,15,18.45,15,19.003v3.994   C15,23.55,14.55,24,13.997,24z M10.002,19L10,22.997L13.997,23c0.001,0,0.002,0,0.002,0L14,19.003L10.002,19z"/><path d="M4.998,6H1.002C0.45,6,0,5.55,0,4.998V1.002C0,0.45,0.45,0,1.002,0h3.995C5.55,0,6,0.45,6,1.002v3.995   C6,5.55,5.55,6,4.998,6z M1.002,1L1,4.998L4.998,5v0.5l0-0.5C4.999,5,5,4.999,5,4.998V1.002L1.002,1z"/><path d="M4.998,15H1.002C0.45,15,0,14.55,0,13.997v-3.995C0,9.45,0.45,9,1.002,9h3.995C5.55,9,6,9.45,6,10.002v3.995   C6,14.55,5.55,15,4.998,15z M1.002,10L1,13.997L4.998,14v0.5L5,10.002L1.002,10z"/><path d="M4.998,24H1.002C0.45,24,0,23.55,0,22.997v-3.994C0,18.45,0.45,18,1.002,18h3.995C5.55,18,6,18.45,6,19.003v3.994   C6,23.55,5.55,24,4.998,24z M1.002,19L1,22.997L4.998,23v0.5L5,19.003L1.002,19z"/><path d="M22.997,6h-3.994C18.45,6,18,5.55,18,4.998V1.002C18,0.45,18.45,0,19.003,0h3.994C23.55,0,24,0.45,24,1.002v3.995   C24,5.55,23.55,6,22.997,6z M19.003,1L19,4.998L22.997,5c0.001,0,0.001,0,0.001,0L23,1.002L19.003,1z"/><path d="M22.997,15h-3.994C18.45,15,18,14.55,18,13.997v-3.995C18,9.45,18.45,9,19.003,9h3.994C23.55,9,24,9.45,24,10.002v3.995   C24,14.55,23.55,15,22.997,15z M19.003,10L19,13.997L22.997,14c0.001,0,0.002,0,0.002,0L23,10.002L19.003,10z"/><path d="M22.997,24h-3.994C18.45,24,18,23.55,18,22.997v-3.994C18,18.45,18.45,18,19.003,18h3.994C23.55,18,24,18.45,24,19.003   v3.994C24,23.55,23.55,24,22.997,24z M19.003,19L19,22.997L22.997,23c0.001,0,0.002,0,0.002,0L23,19.003L19.003,19z"/></g><text x="0" y="39" fill="#000000" font-size="5px" font-weight="bold" font-family="'Helvetica Neue', Helvetica, Arial-Unicode, Arial, Sans-serif">Created by ✦ Shmidt Sergey ✦</text><text x="0" y="44" fill="#000000" font-size="5px" font-weight="bold" font-family="'Helvetica Neue', Helvetica, Arial-Unicode, Arial, Sans-serif">from the Noun Project</text></svg>